<?xml version="1.0" standalone="no"?><!DOCTYPE svg PUBLIC "-//W3C//DTD SVG 1.1//EN" "http://www.w3.org/Graphics/SVG/1.1/DTD/svg11.dtd"><svg t="1734705957622" class="icon" viewBox="0 0 1024 1024" version="1.1" xmlns="http://www.w3.org/2000/svg" p-id="2851" xmlns:xlink="http://www.w3.org/1999/xlink" width="200" height="200"><path d="M700.9 289.5c-17.1 0-30.9-13.8-30.9-30.9 0-73.3-70.9-132.9-158-132.9s-158 59.6-158 132.9c0 17.1-13.8 30.9-30.9 30.9s-30.9-13.8-30.9-30.9c0-107.4 98.6-194.7 219.8-194.7 121.2 0 219.8 87.4 219.8 194.7 0 17.1-13.9 30.9-30.9 30.9zM512 474.7c-84.7 0-162.7-43.8-198.8-111.6-8-15.1-2.3-33.8 12.8-41.8 15.1-8 33.8-2.3 41.8 12.8 25.5 47.9 82.1 78.8 144.3 78.8s118.8-30.9 144.3-78.8c8-15 26.8-20.7 41.8-12.8 15.1 8 20.8 26.7 12.8 41.8-36.3 67.8-114.3 111.6-199 111.6z" fill="#ffbd27" p-id="2852"></path><path d="M700.9 289.5H195.6c-17.1 0-30.9-13.8-30.9-30.9s13.8-30.9 30.9-30.9h505.3c17.1 0 30.9 13.8 30.9 30.9s-13.9 30.9-30.9 30.9zM751.2 960.1c-17.1 0-30.9-13.8-30.9-30.9s13.8-30.9 30.9-30.9c38.5 0 69.8-24.7 69.8-55.2v-32.3c0-143.1-138.6-259.5-309.1-259.5s-309 116.5-309 259.6v32.3c0 30.4 31.3 55.2 69.8 55.2 17.1 0 30.9 13.8 30.9 30.9s-13.8 30.9-30.9 30.9c-72.6 0-131.6-52.5-131.6-117v-32.3c0-177.2 166.4-321.3 370.9-321.3s370.9 144.1 370.9 321.3v32.3c0 64.5-59.1 116.9-131.7 116.9z" fill="#ffbd27" p-id="2853"></path><path d="M606.9 960.1H428.3c-51.1 0-92.7-41.6-92.7-92.7V732.9c0-51.1 41.6-92.7 92.7-92.7h178.6c51.1 0 92.7 41.6 92.7 92.7v134.5c0 51.1-41.6 92.7-92.7 92.7zM428.3 702c-17 0-30.9 13.9-30.9 30.9v134.5c0 17 13.9 30.9 30.9 30.9h178.6c17 0 30.9-13.9 30.9-30.9V732.9c0-17-13.9-30.9-30.9-30.9H428.3z" fill="#ffbd27" p-id="2854"></path></svg>