<?xml version="1.0" standalone="no"?><!DOCTYPE svg PUBLIC "-//W3C//DTD SVG 1.1//EN" "http://www.w3.org/Graphics/SVG/1.1/DTD/svg11.dtd"><svg t="1734773370858" class="icon" viewBox="0 0 1024 1024" version="1.1" xmlns="http://www.w3.org/2000/svg" p-id="2363" xmlns:xlink="http://www.w3.org/1999/xlink" width="200" height="200"><path d="M973.312 484.352c-16.896 0-30.72 13.824-30.72 30.72v378.368c0 28.672-23.04 51.712-51.712 51.712H134.144c-28.672 0-51.712-23.04-51.712-51.712V136.704c0-28.672 23.04-51.712 51.712-51.712h379.904c16.896 0 30.72-13.824 30.72-30.72s-13.824-30.72-30.72-30.72H134.144C71.68 23.552 20.992 74.24 20.992 136.704v756.736c0 62.464 50.688 113.152 113.152 113.152H890.88c62.464 0 113.152-50.688 113.152-113.152v-378.368c0-16.896-13.824-30.72-30.72-30.72z" fill="#ffbd27" p-id="2364"></path><path d="M263.168 593.92h226.816c16.896 0 30.72-13.824 30.72-30.72s-13.824-30.72-30.72-30.72H263.168c-16.896 0-30.72 13.824-30.72 30.72s13.824 30.72 30.72 30.72zM263.168 820.736h503.296c16.896 0 30.72-13.824 30.72-30.72s-13.824-30.72-30.72-30.72H263.168c-16.896 0-30.72 13.824-30.72 30.72s13.824 30.72 30.72 30.72zM590.848 467.456c8.192 0 16.384-3.072 22.528-9.728l369.152-395.776c11.776-12.288 10.752-31.744-1.536-43.52s-31.744-10.752-43.52 1.536L568.32 415.744c-11.776 12.288-10.752 31.744 1.536 43.52 6.144 5.632 13.824 8.192 20.992 8.192z" fill="#ffbd27" p-id="2365"></path></svg>